<svg width="682" height="213" viewBox="0 0 682 213" fill="none" xmlns="http://www.w3.org/2000/svg">
<g clip-path="url(#clip0_34_52)">
<path d="M32.656 106.856C32.656 161.616 106.907 206.009 198.499 206.009C290.091 206.009 364.341 161.616 364.341 106.856C364.341 52.0947 290.091 7.70135 198.499 7.70135C106.907 7.70135 32.656 52.0947 32.656 106.856Z" fill="url(#paint0_linear_34_52)"/>
<mask id="mask0_34_52" style="mask-type:luminance" maskUnits="userSpaceOnUse" x="-221" y="-290" width="1123" height="794">
<path d="M-221 -290H901.52V503.701H-221V-290Z" fill="white"/>
</mask>
<g mask="url(#mask0_34_52)">
<path d="M198.499 210.559C102.963 210.559 25.516 164.129 25.516 106.855C25.516 49.5807 102.963 3.15134 198.499 3.15134C294.033 3.15134 371.481 49.5807 371.481 106.855C371.481 164.129 294.033 210.559 198.499 210.559ZM198.499 0.410006C88.96 0.410006 0.162659 48.0673 0.162659 106.855C0.162659 165.643 88.96 213.301 198.499 213.301C308.037 213.301 396.835 165.643 396.835 106.855C396.835 48.0673 308.037 0.410006 198.499 0.410006Z" fill="#96989B"/>
<path d="M123.907 156.124H92.7946C86.0013 156.124 81.056 149.68 82.8146 143.119L105.733 57.5856H150.309L123.907 156.124Z" fill="white"/>
<path d="M280.209 156.124H243.56L269.964 57.5856H314.54L290.189 148.467C288.979 152.983 284.885 156.124 280.209 156.124Z" fill="white"/>
<path d="M172.927 147.897H136.278L156.22 73.4707C157.431 68.9533 161.524 65.8133 166.2 65.8133H202.85L182.907 140.24C181.696 144.756 177.603 147.897 172.927 147.897Z" fill="white"/>
<path d="M235.55 147.897H190.972L209.416 79.0627H240.53C247.323 79.0627 252.267 85.5067 250.508 92.068L235.55 147.897Z" fill="white"/>
<path d="M512.122 126.207H541.475L544.535 115.102H543.534H445.358L442.299 126.207H492.933L485.577 152.031H575.477L579.011 139.428H508.237L512.122 126.207ZM660.149 90.335L617.986 136.343L600.479 90.335H579.414H515.843C508.331 90.335 501.73 95.319 499.673 102.544L497.837 108.987H517.066L517.289 108.228C518.195 105.144 521.025 103.027 524.238 103.027H584.755L605.381 152.031H622.391L681.565 90.335H660.149Z" fill="#373535"/>
</g>
</g>
<defs>
<linearGradient id="paint0_linear_34_52" x1="258.184" y1="210.234" x2="138.813" y2="3.47641" gradientUnits="userSpaceOnUse">
<stop stop-color="#D0373B"/>
<stop offset="0.5" stop-color="#EC3338"/>
<stop offset="1" stop-color="#F38267"/>
</linearGradient>
<clipPath id="clip0_34_52">
<rect width="682" height="213" fill="white"/>
</clipPath>
</defs>
</svg>
